#!OML:ASF I:\golf\golf\golf 2\Subject 1\2002-09-07\Subject1.ASF
:FULLY-SPECIFIED
:DEGREES
243
root -5.88002 18.1771 -0.814333 -173.12 58.2673 -184.553
lowerback -6.09828 -4.94763 5.24994
upperback 4.08051 -7.14138 11.6605
thorax 8.75615 -3.28532 8.79655
lowerneck -11.6467 -6.7374 0.35013
upperneck 28.6235 -4.53882 -13.6211
head 10.7606 -3.15948 -5.50161
rclavicle -4.77083e-015 -4.77083e-014
rhumerus -5.16703 7.68379 -95.6405
rradius 37.0903
rwrist -64.0057
rhand -36.7624 -10.205
rfingers 7.12502
rthumb -9.84539 -39.9549
lclavicle -4.77083e-015 -4.77083e-014
lhumerus 11.8364 -51.1391 98.3341
lradius 11.7705
lwrist 5.51536
lhand 5.58625 57.3777
lfingers 7.12502
lthumb -149.071 -95.2073
rfemur -16.4022 0.544581 3.19609
rtibia 38.89
rfoot -2.93946 -23.5714
rtoes 6.06287
lfemur -21.1121 4.21426 -19.9979
ltibia 15.431
lfoot -5.4671 -26.6264
ltoes -13.7649
244
root -5.8441 18.1829 -0.83615 -174.497 57.2836 -184.914
lowerback -5.86491 -4.22804 4.75422
upperback 3.96299 -6.0459 12.0864
thorax 8.46197 -2.77171 9.75008
lowerneck -10.851 -7.93286 -0.309436
upperneck 28.6688 -6.12299 -13.3543
head 10.5202 -3.87261 -5.40704
rclavicle -1.27222e-014 -1.90833e-013
rhumerus -4.31649 8.70726 -96.576
rradius 33.4628
rwrist -62.908
rhand -33.1687 -11.5479
rfingers 7.12502
rthumb -6.37706 -41.4319
lclavicle -1.27222e-014 -1.90833e-013
lhumerus 10.1123 -49.4512 98.9442
lradius 11.8139
lwrist 7.68584
lhand 7.46224 60.3877
lfingers 7.12502
lthumb -147.284 -92.5525
rfemur -14.8751 1.18866 2.85898
rtibia 38.9493
rfoot -1.25646 -23.295
rtoes 3.78131
lfemur -19.498 4.29566 -20.3268
ltibia 14.6796
lfoot -4.76117 -27.6324
ltoes -11.5937
245
root -5.82325 18.1851 -0.875017 -175.016 55.5438 -184.806
lowerback -5.90556 -3.66972 4.79343
upperback 3.52905 -5.18331 12.6397
thorax 7.9427 -2.32062 10.4885
lowerneck -10.1308 -9.128 -1.12785
upperneck 28.8884 -7.66534 -13.0049
head 10.4 -4.57294 -5.26348
rclavicle 9.54166e-015 1.145e-013
rhumerus -3.30447 8.94505 -97.4189
rradius 30.0604
rwrist -60.6613
rhand -28.858 -12.9503
rfingers 7.12502
rthumb -2.21462 -42.9185
lclavicle 9.54166e-015 1.145e-013
lhumerus 8.41116 -46.8987 99.8945
lradius 12.0013
lwrist 9.70911
lhand 8.42718 63.0329
lfingers 7.12502
lthumb -146.367 -90.1027
rfemur -13.5552 1.12808 2.81488
rtibia 38.9656
rfoot -0.207922 -23.1584
rtoes 3.29472
lfemur -18.5922 3.52318 -20.3938
ltibia 14.0263
lfoot -3.62922 -28.5355
ltoes -8.9043
246
root -5.80773 18.1813 -0.915215 -175.324 53.6666 -184.571
lowerback -5.90027 -3.12256 5.01847
upperback 2.99474 -4.3109 13.1725
thorax 7.24976 -1.83895 11.0879
lowerneck -9.34928 -10.3307 -1.8888
upperneck 29.017 -9.23946 -12.7051
head 10.2488 -5.28648 -5.13625
rclavicle 4.29375e-014 8.90555e-014
rhumerus -2.14875 9.15845 -98.1941
rradius 26.9701
rwrist -57.871
rhand -24.3537 -14.2701
rfingers 7.12502
rthumb 2.13572 -44.2391
lclavicle 4.29375e-014 8.90555e-014
lhumerus 7.01718 -44.3412 100.735
lradius 12.3081
lwrist 12.8044
lhand 8.42233 65.4817
lfingers 7.12502
lthumb -146.372 87.6528
rfemur -12.2885 0.9421 2.87142
rtibia 38.9898
rfoot 0.386704 -23.1502
rtoes 4.02106
lfemur -17.9165 2.44874 -20.3441
ltibia 13.4908
lfoot -1.89536 -29.2024
ltoes -4.22053
247
root -5.79348 18.1704 -0.949007 -175.825 51.887 -184.601
lowerback -5.93988 -2.46409 5.05588
upperback 2.57414 -3.28941 13.5939
thorax 6.67612 -1.28936 11.6849
lowerneck -8.67374 -11.6212 -2.53513
upperneck 28.9901 -11.0049 -12.3778
head 10.0635 -6.08279 -5.02768
rclavicle -2.78299e-014 -1.7175e-013
rhumerus -0.479713 9.11939 -98.8672
rradius 24.0505
rwrist -54.4436
rhand -20.0246 -15.3446
rfingers 7.12502
rthumb 6.31611 -45.2305
lclavicle -2.78299e-014 -1.7175e-013
lhumerus 6.35594 -42.271 101.126
lradius 12.7554
lwrist 17.2647
lhand 7.70478 67.5459
lfingers 7.12502
lthumb -147.054 85.4426
rfemur -11.0798 0.730533 2.77787
rtibia 39.0337
rfoot 0.748653 -23.1336
rtoes 5.58464
lfemur -17.3283 1.57291 -20.536
ltibia 13.1376
lfoot -1.02502 -29.8422
ltoes -1.85592
